<?xml version="1.0" standalone="no"?>
<!DOCTYPE svg PUBLIC "-//W3C//DTD SVG 20010904//EN"
 "http://www.w3.org/TR/2001/REC-SVG-20010904/DTD/svg10.dtd">
<svg version="1.0" xmlns="http://www.w3.org/2000/svg"
 width="512.000000pt" height="512.000000pt" viewBox="0 0 512.000000 512.000000"
 preserveAspectRatio="xMidYMid meet">
<metadata>
Created by potrace 1.14, written by Peter Selinger 2001-2017
</metadata>
<g transform="translate(0.000000,512.000000) scale(0.100000,-0.100000)"
fill="#000000" stroke="none">
<path d="M2840 4056 c-151 -40 -265 -152 -402 -396 l-48 -85 0 213 0 212 -307
-2 -307 -3 -1 -1500 c0 -825 1 -1506 3 -1512 3 -10 78 -13 332 -13 l327 0 0
593 c0 545 7 953 18 1052 2 22 7 74 10 115 18 223 74 408 151 499 58 69 154
115 249 120 69 3 172 -31 250 -83 36 -24 67 -41 69 -37 3 4 14 39 25 77 11 38
29 101 41 139 12 39 27 93 35 120 7 28 33 118 58 200 l45 150 -24 20 c-41 35
-170 95 -247 114 -83 22 -209 25 -277 7z"/>
</g>
</svg>
